<?xml version="1.0" standalone="no"?>
<!DOCTYPE svg PUBLIC "-//W3C//DTD SVG 20010904//EN"
 "http://www.w3.org/TR/2001/REC-SVG-20010904/DTD/svg10.dtd">
<svg version="1.0" xmlns="http://www.w3.org/2000/svg"
 width="500.000000pt" height="500.000000pt" viewBox="0 0 500.000000 500.000000"
 preserveAspectRatio="xMidYMid meet">
<metadata>
Created by potrace 1.14, written by Peter Selinger 2001-2017
</metadata>
<g transform="translate(0.000000,500.000000) scale(0.100000,-0.100000)"
fill="#000000" stroke="none">
<path d="M1290 3205 l0 -105 220 0 220 0 0 -215 0 -215 120 0 120 0 0 215 0
215 215 0 215 0 0 105 0 105 -555 0 -555 0 0 -105z"/>
<path d="M2660 3205 l0 -105 215 0 215 0 0 -215 0 -215 115 0 115 0 2 213 3
212 218 3 217 2 0 105 0 105 -550 0 -550 0 0 -105z"/>
<path d="M1308 2583 l32 -4 0 -85 c0 -49 4 -84 10 -84 6 0 10 35 10 84 l0 85
33 4 c17 2 -2 4 -43 4 -41 0 -60 -2 -42 -4z"/>
<path d="M1470 2500 c0 -53 4 -90 10 -90 6 0 10 14 10 30 0 27 3 30 33 30 26
0 36 -6 50 -30 10 -16 22 -30 28 -30 14 0 11 16 -6 30 -8 7 -15 18 -15 25 0 7
7 18 15 25 21 17 19 63 -3 83 -12 11 -36 17 -70 17 l-52 0 0 -90z m101 70 c12
-7 19 -21 19 -41 0 -32 -27 -49 -76 -49 -22 0 -24 4 -24 50 0 49 1 50 31 50
17 0 39 -5 50 -10z"/>
<path d="M1687 2508 c-39 -88 -42 -98 -28 -98 5 0 12 11 15 25 6 23 11 25 60
25 47 0 54 -3 64 -25 6 -14 16 -25 22 -25 5 0 -7 35 -26 78 -20 42 -38 83 -41
90 -12 28 -31 8 -66 -70z m86 -30 c-6 -12 -73 -10 -73 2 0 5 7 28 17 51 l16
42 23 -44 c12 -24 20 -47 17 -51z"/>
<path d="M1852 2582 c52 -125 75 -172 84 -172 12 0 88 169 80 178 -8 7 -8 7
-40 -68 -16 -36 -32 -68 -35 -73 -4 -4 -22 27 -40 68 -18 41 -38 75 -43 75 -5
0 -8 -4 -6 -8z"/>
<path d="M2070 2500 l0 -90 65 0 c37 0 65 4 65 10 0 6 -25 10 -55 10 -54 0
-55 0 -55 30 0 29 2 30 44 30 25 0 48 5 51 10 4 6 -13 10 -44 10 l-51 0 0 35
0 34 58 4 57 3 -67 2 -68 2 0 -90z"/>
<path d="M2260 2500 l0 -90 60 0 c33 0 60 4 60 10 0 6 -22 10 -50 10 l-50 0 0
80 c0 47 -4 80 -10 80 -6 0 -10 -37 -10 -90z"/>
<path d="M2688 2583 l32 -4 0 -85 c0 -49 4 -84 10 -84 6 0 10 35 10 84 l0 85
33 4 c17 2 -2 4 -43 4 -41 0 -60 -2 -42 -4z"/>
<path d="M2851 2498 c1 -55 4 -81 8 -63 5 26 11 30 41 33 30 2 38 -2 53 -28
10 -16 23 -30 28 -30 6 0 1 13 -11 30 l-21 29 21 21 c46 46 9 100 -70 100
l-50 0 1 -92z m100 72 c26 -15 26 -66 -1 -80 -12 -6 -35 -10 -53 -8 -28 3 -32
7 -35 36 -2 19 -1 40 2 48 6 16 59 19 87 4z"/>
<path d="M3050 2522 c0 -59 3 -72 23 -90 29 -27 67 -28 98 -3 19 16 24 30 27
90 3 48 1 71 -7 71 -7 0 -11 -25 -11 -70 0 -64 -2 -71 -26 -87 -24 -15 -29
-15 -53 -2 -24 13 -26 21 -29 87 -4 92 -22 95 -22 4z"/>
<path d="M3285 2565 c-38 -37 -35 -95 6 -129 35 -29 76 -33 105 -10 18 14 18
15 -6 8 -59 -18 -102 3 -115 58 -6 22 -1 33 23 58 32 31 60 37 93 20 11 -6 19
-7 19 -1 0 13 -26 21 -66 21 -24 0 -43 -8 -59 -25z"/>
<path d="M3483 2500 c0 -52 2 -83 4 -69 2 15 13 35 24 45 20 18 21 18 61 -24
22 -24 42 -41 45 -38 3 3 -11 24 -31 46 -42 47 -43 51 -15 76 11 10 25 28 31
39 6 11 -14 -4 -44 -32 -29 -29 -57 -53 -60 -53 -4 0 -9 24 -11 53 -2 28 -3 9
-4 -43z"/>
<path d="M3682 2578 c-16 -16 -15 -55 1 -65 6 -4 27 -13 46 -18 46 -14 63 -41
36 -61 -19 -15 -48 -14 -89 2 -13 5 -17 4 -12 -4 10 -17 75 -26 102 -13 17 8
24 19 24 40 0 26 -5 31 -51 46 -55 18 -69 36 -48 61 10 12 24 15 59 10 31 -4
40 -3 30 4 -21 14 -84 12 -98 -2z"/>
<path d="M1730 2015 l0 -315 120 0 120 0 -2 313 -3 312 -117 3 -118 3 0 -316z"/>
<path d="M3090 2015 l0 -315 115 0 115 0 0 315 0 315 -115 0 -115 0 0 -315z"/>
</g>
</svg>
